<svg width="1080" height="1080" viewBox="0 0 1080 1080" fill="none" xmlns="http://www.w3.org/2000/svg">
<g clip-path="url(#clip0_330_173)">
<circle cx="540" cy="540" r="540" fill="white"/>
<path d="M610.763 449.938C621.421 449.938 630.062 458.579 630.062 469.237V749.072C630.061 805.918 583.979 852 527.134 852H228V552.866C228 496.021 274.082 449.939 330.928 449.938H610.763ZM338.442 474.062C290.77 474.062 252.124 512.736 252.124 560.443V806.037C252.124 807.992 252.953 809.753 254.276 810.989L585.835 479.19C582.76 476.027 578.461 474.062 573.703 474.062H338.442Z" fill="black"/>
<path d="M826.268 228C840.479 228 852 239.521 852 253.732V578.598C852 607.02 828.959 630.061 800.536 630.062H675.093C664.434 630.062 655.794 621.421 655.794 610.763V443.505C655.794 432.847 647.153 424.206 636.495 424.206H469.237C458.579 424.206 449.938 415.566 449.938 404.907V279.464C449.939 251.041 472.98 228 501.402 228H826.268ZM827.876 260.944C827.876 255.916 821.726 255.276 818.171 258.831L684.157 392.846C681.443 395.56 679.918 399.241 679.918 403.08V590.635C679.918 595.964 684.238 600.284 689.567 600.284H789.278C810.595 600.284 827.876 583.003 827.876 561.687V260.944Z" fill="black"/>
</g>
<defs>
<clipPath id="clip0_330_173">
<rect width="1080" height="1080" fill="white"/>
</clipPath>
</defs>
</svg>
